<!-- Generated by IcoMoon.io -->
<svg version="1.1" xmlns="http://www.w3.org/2000/svg" width="63" height="45" viewBox="0 0 631 448">
<title>_1</title>
<g id="icomoon-ignore">
</g>
<path fill="#7ed957" d="M575.677 372.34c-1.234 1.645-2.467 3.084-3.906 4.523-2.261 2.056-5.551 3.701-8.635 3.084-0.411 0-0.823-0.206-1.028-0.411-11.514-3.084-27.345 0.411-27.756 0.617-2.467 2.467-4.729 5.551-6.99 8.224-3.495 4.318-7.607 8.43-12.953 10.074-4.318 1.439-8.841 1.028-13.364 0.206-2.467-0.411-4.729-1.028-6.99-1.85-17.065-5.345-46.26-8.224-46.26-8.224-1.85 1.028-3.906 2.261-5.551 3.495-7.607 5.14-15.831 10.691-24.672 12.336-8.43 1.439-17.682 2.673-24.672-2.056-2.878-2.056-5.14-4.729-7.813-7.196-6.168-5.345-14.803-8.018-23.027-7.813s-16.448 2.878-23.644 6.579c-4.523 2.467-8.841 5.345-13.569 6.785-10.486 3.084-21.588-1.234-31.251-5.962-9.869-4.729-19.737-10.28-30.634-10.074-10.486 0.206-19.943 5.551-29.195 10.074-9.457 4.523-20.56 3.906-31.045 4.729-7.607 0.617-15.625-2.261-21.177-7.402-2.878-2.673-5.14-5.757-8.635-7.607-4.318-2.261-9.457-1.645-13.981-0.206s-9.046 3.495-13.775 4.318c-11.102 1.85-22.205-3.495-30.223-11.514-14.186-7.813-37.419-12.13-41.325-12.747-1.439-0.206-2.673-0.617-3.701-1.645-3.701-3.084-2.467-8.841-3.906-13.364-2.467-7.196-11.102-8.635-18.71-9.663 7.607-18.504 25.7-18.093 25.7-18.093 31.662-27.55 74.632-39.886 116.369-42.765 29.606-2.056 59.213-1.234 88.613 2.878 29.4 3.906 58.184 10.897 87.38 15.625 46.671 7.607 93.959 9.663 141.246 11.102 23.644 0.822 43.176 6.168 65.997 13.158 4.318 5.551 11.514 6.579 17.27 10.28 9.663 6.168 17.27 16.037 19.943 27.139-0.411 0.206-23.233 5.757-34.129 13.364z"></path>
<path fill="#ffde59" d="M626.665 261.111v7.813c-46.671-29.4-182.777 89.847-182.777 89.847-5.345-12.13-71.96-33.718-109.173-30.429-37.213 3.084-147.62 8.43-204.777-24.878s-127.060-12.336-127.060-12.336v-7.813c18.915-35.158 62.708-50.577 62.708-50.577l492.821-7.813c48.727 4.112 68.259 36.185 68.259 36.185z"></path>
<path fill="#ed4742" d="M558.407 236.439c0 0 4.112 43.381-78.333 50.166s-103.827-10.486-104.033-10.486c-75.249 43.587-162.012 0.206-163.246 0.822 0 0-0.206 0-0.206 0v0.206c-15.42 7.813-40.914 13.981-79.772 5.345-73.605-16.242-67.436-49.961-67.436-49.961l0.206-16.859c23.644-29.4 58.39-45.849 95.809-51.4 37.213-5.551 75.249-1.439 112.668 3.906 34.335 4.729 68.67 10.28 102.594 16.653 17.065 3.29 34.335 6.579 51.811 6.168 13.569-0.411 26.933-3.084 40.503-3.906 19.12-1.028 38.036 2.056 56.951 4.935 9.046 1.439 18.504 2.878 26.522 7.607l5.757 18.298c0 0 0.411 3.084 0 7.813v10.691z"></path>
<path fill="#ff914d" d="M575.677 372.34c-1.234 1.645-2.467 3.084-3.906 4.523-2.261 2.056-5.551 3.701-8.635 3.084-0.411 0-0.823-0.206-1.028-0.411-11.514-3.084-27.345 0.411-27.756 0.617-2.467 2.467-4.729 5.551-6.99 8.224-3.495 4.318-7.607 8.43-12.953 10.074-4.318 1.439-8.841 1.028-13.364 0.206-2.467-0.411-4.729-1.028-6.99-1.85-17.065-5.345-46.26-8.224-46.26-8.224-1.85 1.028-3.906 2.261-5.551 3.495-7.607 5.14-15.831 10.691-24.672 12.336-8.43 1.439-17.682 2.673-24.672-2.056-2.878-2.056-5.14-4.729-7.813-7.196-6.168-5.345-14.803-8.018-23.027-7.813s-16.448 2.878-23.644 6.579c-4.523 2.467-8.841 5.345-13.569 6.785-10.486 3.084-21.588-1.234-31.251-5.962-9.869-4.729-19.737-10.28-30.634-10.074-10.486 0.206-19.943 5.551-29.195 10.074-9.457 4.523-20.56 3.906-31.045 4.729-7.607 0.617-15.625-2.261-21.177-7.402-2.878-2.673-5.14-5.757-8.635-7.607-4.318-2.261-9.457-1.645-13.981-0.206s-9.046 3.495-13.775 4.318c-11.102 1.85-22.205-3.495-30.223-11.514-14.186-7.813-37.419-12.13-41.325-12.747-1.439-0.206-2.673-0.617-3.701-1.645-0.617-0.617-1.028-1.234-1.439-1.85 0 0-3.29 45.643 40.092 65.997s315.594 29.195 426.412 4.318c0 0 38.036-4.112 46.671-62.091-2.673 1.234-4.523 2.261-5.962 3.29zM57.979 192.852c7.813-52.839 49.138-191.412 261.933-191.412 203.749 0 250.214 127.060 260.699 184.217 2.673 15.009-7.196 29.4-22.205 32.279-276.531 51.605-433.402 16.037-483.98 1.028-11.308-3.495-18.298-14.598-16.448-26.111z"></path>
<path fill="#963831" d="M166.33 49.961c5.345 5.345 0 14.598 0 14.598-9.869-3.906 0-14.598 0-14.598zM460.747 149.265c0 0-2.056-7.813 6.374-9.046 0 0 0 6.99-6.374 9.046zM479.868 78.95c8.224 1.645 7.402 11.514 7.402 11.514-8.224-2.056-7.402-11.514-7.402-11.514zM221.841 126.443c0 0-1.234 10.28-6.99 13.57 0 0.206-0.411-10.074 6.99-13.57zM286.399 130.35c8.635-4.935 12.747 7.813 12.747 7.813-9.046 1.645-12.747-7.813-12.747-7.813zM384.675 120.275c0 0-1.234-11.102 4.523-13.158 0 0 2.056 9.869-4.523 13.158zM421.478 83.885c0 0 4.935-12.336 10.28-13.158 0.206 0 2.261 11.514-10.28 13.158zM237.467 32.074c0 0-3.701-10.28 0-13.981 0 0 3.701 10.28 0 13.981zM148.854 94.164c9.252 6.168 3.906 16.037 3.906 16.037-9.457-1.85-3.906-16.037-3.906-16.037zM328.136 22.616c0 0 4.112-9.457 11.102-9.046 0 0 1.645 8.635-11.102 9.046zM399.067 42.97c0 0 6.168 0 9.457 3.701 0.206 0-3.29 4.523-9.457-3.701zM319.295 53.25c9.046 12.336 0 11.308 0 11.308-3.29-1.85 0-11.308 0-11.308zM265.223 64.969c10.28-2.056 11.514 9.457 11.514 9.457-8.224 0.411-11.514-9.457-11.514-9.457zM205.599 74.427c0 0 2.056-7.813 9.046-7.402 0.206 0 0.206 7.813-9.046 7.402zM444.71 356.097l-0.411 0.411-1.028-1.028c-11.514-12.336-71.96-31.662-108.762-28.578-33.101 2.878-145.564 9.252-203.954-24.672-1.028-0.617-2.056-1.234-3.084-1.645-0.411-0.206-0.617-0.411-1.028-0.411-0.822-0.411-1.645-0.822-2.467-1.234-0.206-0.206-0.617-0.206-0.823-0.411-1.028-0.411-1.85-0.822-2.878-1.439-0.617-0.206-1.234-0.617-1.85-0.822-0.411-0.206-0.617-0.411-1.028-0.411-15.625-6.785-33.101-10.897-52.017-12.13h-1.028c-29.4-1.645-53.456 3.906-60.241 5.551v-4.729c8.635-2.261 72.576-17.887 125.004 12.541 59.213 34.335 172.292 27.962 205.599 25.083 37.419-3.084 103.005 18.504 107.734 29.606l0.822 1.85 1.439-1.234c1.439-1.234 134.462-117.191 180.31-90.052v4.523c-46.054-24.261-163.657 74.838-180.31 89.23zM582.050 329.986c2.261 1.028 4.523 1.85 6.579 3.29 8.841 5.551 15.831 14.392 18.71 24.055-11.102-1.645-23.233 2.673-30.634 11.308-0.822 0.822-1.439 1.85-2.056 2.673-1.234 1.645-2.467 3.084-3.701 4.523-2.261 2.261-5.14 3.084-7.402 2.673-0.411-0.206-0.617-0.206-1.028-0.206-1.439-0.617-2.673-1.439-3.906-2.673-1.028-0.822-2.261-1.85-3.701-2.467-4.935-2.467-11.514-1.645-17.065 2.056-1.645 1.234-3.084 2.467-4.523 3.906 0 0 0 0 0 0v0c-1.85 1.85-3.701 4.112-5.345 6.168-0.617 0.822-1.234 1.439-1.85 2.261-3.29 3.906-7.196 8.018-12.336 9.663-3.495 1.234-7.402 1.234-12.747 0.206-2.261-0.411-4.729-1.028-6.99-1.85 0 0-0.206 0-0.206 0-3.906-1.234-7.607-2.878-11.308-4.935-1.028-0.617-2.261-1.234-3.29-2.056-3.701-2.261-7.402-4.523-11.719-5.551-9.869-2.056-19.326 3.084-26.522 8.018l-0.822 0.617c-7.402 4.935-15.009 10.074-23.233 11.514-8.43 1.439-17.065 2.467-23.644-1.85-1.645-1.234-3.29-2.673-4.729-4.318-1.028-1.028-1.85-1.85-2.878-2.878-6.168-5.345-14.803-8.224-23.849-8.224-7.813 0.206-16.037 2.467-24.261 6.785-1.234 0.617-2.261 1.234-3.495 1.85-3.29 1.85-6.579 3.701-10.074 4.729-10.074 2.878-20.971-1.234-30.223-5.757-1.028-0.411-1.85-1.028-2.878-1.439-9.046-4.523-18.298-9.046-28.373-8.841-9.252 0.206-17.682 4.318-25.905 8.43-1.234 0.617-2.467 1.234-3.906 1.85-7.196 3.495-15.831 3.906-24.055 4.318-2.056 0-4.318 0.206-6.374 0.411-7.196 0.411-14.803-2.056-20.149-6.99-0.822-0.822-1.645-1.645-2.467-2.467-1.85-2.056-3.906-4.112-6.579-5.345-3.906-2.056-9.046-2.056-15.009-0.411-1.645 0.411-3.495 1.234-5.14 1.645-2.878 1.028-5.551 2.056-8.43 2.467-11.925 2.056-23.438-5.14-30.429-12.541-0.822-1.028-1.85-2.056-2.673-3.084-3.084-3.701-6.374-7.402-10.897-9.663-4.935-2.261-11.308-2.467-18.71-0.411l-0.411 0.206c-2.673 0.822-5.551 1.439-8.019 1.234-0.206 0-0.206 0-0.411 0-1.028-0.206-1.85-0.617-2.673-1.234-1.85-1.645-2.261-4.318-2.467-7.402-0.206-1.85-0.411-3.701-1.028-5.551-2.673-7.607-10.691-9.252-17.887-10.486 6.579-13.981 19.943-15.42 23.027-15.625 0.411 0.617 1.028 1.234 1.439 1.85 0 0 0.411 0.411 0.617 0.617s0.411 0.411 0.617 0.617c0.617 0.617 1.645 1.234 2.673 2.056 12.541 8.635 56.334 31.045 177.021 31.868 2.261 0 4.729 0 6.99 0 4.935 0 9.869 0 15.009-0.206l165.302-2.261c0.411 0.411 0.822 1.028 1.028 1.439l0.822 1.85 1.439-1.234c0.206 0 1.234-1.028 3.29-2.878 7.813 0 84.707-1.028 122.537-31.251l0.206-0.206c0 0 0.617-0.617 1.234-1.439 2.673 3.495 6.373 5.14 9.869 6.579zM582.667 366.994c5.345-4.318 12.336-6.99 19.12-7.196-5.345 1.645-12.747 4.112-19.12 7.196zM539.286 377.685c0 0 0.206 0 0 0 3.701-2.673 9.663-4.523 14.392-2.056 0.822 0.411 1.439 0.822 2.261 1.439-5.962-0.411-12.336 0-16.653 0.617zM452.523 387.965c4.729-2.056 9.663-3.084 14.598-2.056 3.906 0.822 7.196 2.878 10.897 5.14 0.617 0.411 1.028 0.617 1.645 1.028-10.28-2.056-21.177-3.29-27.139-4.112zM81.417 364.938c0.206 0 0.411 0 0.617-0.206l0.411-0.206c6.785-1.85 12.336-1.645 16.653 0.411 3.701 1.645 6.579 4.935 9.457 8.224-9.252-3.906-19.737-6.579-27.139-8.224zM534.146 429.907v0c-111.846 25.289-383.853 15.42-425.59-4.112-35.158-16.448-39.064-50.166-39.27-61.063 1.028 0.617 2.261 1.028 3.495 1.234 3.495 0.617 26.728 4.935 40.709 12.541 9.252 9.252 20.766 13.569 31.251 11.719 3.084-0.617 6.168-1.645 9.046-2.673 1.645-0.617 3.29-1.234 4.935-1.645 5.345-1.645 9.663-1.645 12.953 0.206 2.261 1.028 3.906 2.878 5.757 4.935 0.822 0.822 1.645 1.645 2.467 2.467 5.962 5.345 14.186 8.43 22.205 7.813 2.056-0.206 4.112-0.206 6.373-0.411 8.635-0.411 17.476-0.822 25.083-4.523 1.234-0.617 2.467-1.234 3.906-1.85 8.018-3.906 16.037-8.019 24.878-8.019 9.457-0.206 18.504 4.318 27.139 8.635 1.028 0.411 1.85 1.028 2.878 1.439 9.869 4.729 21.177 9.252 32.279 5.962 3.906-1.028 7.196-3.084 10.691-4.935 1.028-0.617 2.261-1.234 3.29-1.85 7.813-4.112 15.625-6.373 23.027-6.579 8.43-0.206 16.448 2.673 21.999 7.402 1.028 0.822 1.85 1.85 2.878 2.673 1.645 1.645 3.29 3.29 5.14 4.523 4.112 2.673 8.635 3.495 13.569 3.495 3.906 0 8.019-0.617 12.13-1.234 8.841-1.439 16.859-6.785 24.466-11.925l0.822-0.617c1.645-1.028 3.29-2.056 5.14-3.084 3.701 0.411 29.606 3.084 45.232 8.019 2.467 0.822 5.14 1.439 7.607 1.85 5.757 1.028 10.28 1.028 13.981-0.206 5.757-1.85 10.074-6.374 13.57-10.691 0.617-0.822 1.234-1.439 1.85-2.261 1.645-1.85 3.084-3.906 4.935-5.757 2.056-0.617 16.448-3.29 26.728-0.617 0.411 0.206 0.823 0.206 1.234 0.411 3.29 0.617 6.785-0.617 9.869-3.495 1.439-1.439 2.673-2.878 3.906-4.523 0.823-0.411 1.645-1.028 2.467-1.439-9.252 53.661-44.615 58.184-45.026 58.184zM63.941 234.588c0 8.224 4.935 35.158 68.67 49.138 13.364 2.878 25.289 4.112 35.569 4.112 20.354 0 35.157-4.729 44.821-9.457 0.411 0.206 1.439 0.617 2.467 1.028 29.195 11.719 57.773 17.476 84.501 17.476 27.962 0 53.661-6.373 75.866-19.12 3.701 2.467 20.971 11.719 67.848 11.719 10.486 0 22.616-0.411 36.185-1.645 33.924-2.878 57.568-11.925 70.315-27.345 10.074-11.925 9.457-23.233 9.252-24.466v-10.074c35.363 3.495 54.895 22.205 62.297 31.045-48.933-18.093-163.657 79.361-177.843 91.491-10.074-13.158-74.427-32.69-109.584-29.812-33.101 2.878-145.564 9.252-203.954-24.672-50.166-29.195-110.407-17.065-125.004-13.364 17.065-27.756 50.166-42.559 58.596-46.054zM132.612 265.223c13.364 2.878 25.289 4.112 35.569 4.112 19.121 0 33.101-4.112 42.559-8.43 0.206-0.206 0.617-0.206 0.822-0.411v8.841l-0.206 6.785c-14.392 6.99-39.475 13.364-78.127 4.935-71.137-15.831-66.409-47.905-66.203-48.316v-4.729c5.757 11.514 21.588 27.345 65.586 37.213zM59.213 193.057c8.635-57.156 51.4-190.179 260.699-190.179 203.543 0 249.186 128.088 259.466 182.983 2.673 14.186-6.785 27.962-21.177 30.634-107.323 19.943-196.758 26.933-269.335 26.933-110.201 0-180.722-15.831-214.029-25.905-10.486-3.29-17.27-13.775-15.625-24.466zM556.967 219.991c-0.206 3.701-1.439 11.925-8.635 20.354-12.13 14.392-35.774 23.644-68.464 26.317-68.053 5.551-94.37-5.345-101.155-9.046 7.402-4.523 14.598-9.663 21.382-15.625l-0.822-0.822c47.493-4.112 99.921-11.102 157.489-21.794v0.617zM377.479 260.083c7.402 4.112 33.924 15.009 102.594 9.252 33.924-2.878 57.568-11.925 70.315-27.139 3.084-3.701 5.14-7.196 6.579-10.486v4.935c0 0.206 0.822 11.102-8.635 22.616-12.13 14.392-35.774 23.438-68.259 26.111-73.81 6.168-98.687-7.402-102.388-9.869v-15.42zM214.234 269.54v-9.252c0.411 0.206 0.822 0.411 1.234 0.411 29.606 11.719 57.979 17.682 84.501 17.682 27.345 0 52.428-6.168 74.632-18.504v15.42c-42.97 24.466-99.099 25.083-158.106 1.439-1.028-0.411-1.85-0.822-2.467-1.028l0.206-6.168zM376.246 255.971l-1.439-1.234v2.056c-57.156 32.69-121.92 15.831-158.106 1.439 0 0-0.206 0-0.206 0 10.074-5.551 15.214-11.514 16.653-13.364 17.27 0.822 35.98 1.439 55.923 1.439 32.485 0 68.259-1.439 107.528-4.729-6.785 5.551-13.569 10.28-20.354 14.392zM67.231 216.907c2.056 1.439 4.318 2.467 6.785 3.29 27.139 8.019 78.539 20.149 155.433 24.261-6.579 7.196-34.335 31.662-96.22 17.887-54.278-12.13-64.352-33.718-65.997-43.381v-2.056zM630.983 265.428l-3.084-5.14c-0.206-0.411-20.149-32.279-68.053-36.802v-3.29c0-0.411 0-0.822 0-1.234 15.215-3.495 25.083-18.298 22.205-33.512-5.757-31.045-20.56-75.866-58.39-114.313-46.466-47.288-115.136-71.137-203.749-71.137-92.108 0-162.423 25.7-208.888 76.277-38.447 41.942-50.577 90.875-54.484 116.369-1.234 8.224 1.85 16.448 7.607 21.794 0 1.028-0.206 2.878 0.206 5.551l-0.206 11.514c-6.374 2.467-45.232 18.504-62.502 50.988l-1.645 3.084 1.439-0.411v7.813l1.85-0.617c0.411-0.206 26.933-7.813 60.241-6.168-1.234 5.14-3.701 19.737 6.168 34.335-5.551 0.617-18.298 3.906-24.466 18.71l-0.617 1.645 1.85 0.206c6.785 1.028 15.215 2.261 17.476 8.841 0.411 1.439 0.617 3.084 0.822 4.935 0.206 2.261 0.617 4.523 1.439 6.579-0.206 4.523-0.822 47.288 40.914 66.82 20.971 9.869 96.632 17.476 188.534 19.326 12.747 0.206 25.494 0.411 38.036 0.411 84.090 0 157.489-5.551 200.87-15.214 2.261-0.411 39.064-6.373 47.699-62.502 10.486-5.345 24.878-9.046 27.345-9.663l1.85 0.411-0.617-2.261c-2.878-11.102-10.486-21.588-20.56-27.962-2.261-1.439-4.523-2.467-6.785-3.495-3.701-1.645-6.99-3.084-9.457-5.757 3.29-4.935 8.43-14.186 8.43-26.522 0-6.785-1.439-14.392-5.757-22.616 19.943-7.607 37.625-10.074 49.344-2.673l2.056 1.439v-7.607l2.878 1.85z"></path>
</svg>
