<!-- Generated by IcoMoon.io -->
<svg version="1.1" xmlns="http://www.w3.org/2000/svg" width="76" height="64" viewBox="0 0 38 32">
<title>empty-shopping-cart</title>
<path fill="#7ed957" d="M30.933 27.014h4.068c0.397 0 0.707-0.36 0.707-0.794s-0.322-0.794-0.707-0.794h-21.321c-1.476 0-2.667-1.178-2.667-2.629 0-1.34 0.744-2.518 2.89-2.629h-0.843c-0.645 0-1.216-0.422-1.389-1.042-1.24 0.719-2.084 2.096-2.084 3.671 0 2.27 1.749 4.118 3.932 4.217h17.414z"></path>
<path fill="#83807b" d="M18.369 29.073c0 1.612-1.315 2.927-2.94 2.927s-2.94-1.315-2.94-2.927c0-1.612 1.315-2.927 2.94-2.927s2.94 1.315 2.94 2.927z"></path>
<path fill="#d1cabe" d="M16.645 29.073c0 0.67-0.546 1.203-1.216 1.203s-1.216-0.546-1.216-1.203c0-0.67 0.546-1.203 1.216-1.203 0.67-0.012 1.216 0.533 1.216 1.203z"></path>
<path fill="#83807b" d="M34.754 29.073c0 1.612-1.315 2.927-2.94 2.927s-2.94-1.315-2.94-2.927c0-1.612 1.315-2.927 2.94-2.927s2.94 1.315 2.94 2.927z"></path>
<path fill="#d1cabe" d="M33.029 29.073c0 0.67-0.546 1.203-1.215 1.203s-1.215-0.546-1.215-1.203c0-0.67 0.546-1.203 1.215-1.203 0.67-0.012 1.215 0.533 1.215 1.203z"></path>
<path fill="#ff914d" d="M35.026 11.932h-4.242l0.943-5.78h4.825c0 0 0.012 0 0.025 0.012 0 0-0.757 2.816-1.55 5.767zM33.215 18.729c0 0-0.012 0.012-0.025 0.012h-3.522l0.943-5.78h4.143c-0.794 2.964-1.538 5.767-1.538 5.767zM28.626 18.741h-5.048v-5.78h5.991l-0.943 5.78zM23.578 6.152h7.107l-0.943 5.78h-6.164v-5.78zM22.536 11.932h-6.164l-0.943-5.78h7.107v5.78zM22.536 18.741h-5.048l-0.943-5.78h5.991v5.78zM13.060 18.741c-0.012 0-0.025-0.012-0.025-0.012l-1.538-5.767h4.006l0.943 5.78h-3.386zM9.811 6.673l-0.136-0.509c0 0 0.012 0 0.012 0h4.701l0.943 5.78h-4.081l-1.439-5.271zM36.552 4.738h-22.4c0 0-4.713 0.012-4.825 0.050l-1.228-4.788h-7.38c-0.385 0-0.707 0.322-0.707 0.719s0.322 0.719 0.719 0.719h5.718c0.322 0 0.608 0.223 0.695 0.546l2.642 9.947h-0.037l0.273 1.029 1.637 6.14c0.174 0.633 0.744 1.067 1.402 1.067h20.13c0.657 0 1.228-0.434 1.402-1.067l1.637-6.14 1.724-6.425c0.236-0.905-0.447-1.798-1.402-1.798z"></path>
</svg>
